<svg xmlns="http://www.w3.org/2000/svg" version="1.1" xmlns:xlink="http://www.w3.org/1999/xlink" xmlns:svgjs="http://svgjs.dev/svgjs" width="1500" height="150" preserveAspectRatio="none" viewBox="0 0 1440 560"><g mask="url(&quot;#SvgjsMask1585&quot;)" fill="none"><rect width="1440" height="560" x="0" y="0" fill="url(&quot;#SvgjsLinearGradient1586&quot;)"></rect><path d="M0 56.76C16.1 21.34 26.71 14.97 63.64 0C96.71 -13.41 101.82 0 140 0C210 0 210 0 280 0C350 0 350 0 420 0C490 0 490 0 560 0C630 0 630 0 700 0C711.66 0 713.92 -6.36 723.33 0C783.92 40.94 793.21 94.59 840 94.59C872.14 94.59 845.43 24.16 881.18 0C915.43 -23.14 930.59 0 980 0C1050 0 1050 0 1120 0C1190 0 1190 0 1260 0C1330 0 1330 0 1400 0C1470 0 1505 -35 1540 0C1575 35 1540 70 1540 140C1540 190 1553.03 195.49 1540 240C1532.54 265.49 1499.02 255.57 1499.02 280C1499.02 328.07 1524.37 331.59 1540 385C1544.86 401.59 1540 402.5 1540 420C1540 482.22 1546.61 484.96 1540 544.44C1538.83 554.96 1534.96 558.83 1524.44 560C1464.96 566.61 1462.22 560 1400 560C1373.34 560 1361.35 578.16 1346.67 560C1304.76 508.16 1322.41 485.47 1286.81 420C1279.08 405.78 1274.1 400.62 1260 400.62C1242.17 400.62 1225.65 401.73 1222.94 420C1213.83 481.42 1264.53 521.69 1236.36 560C1213.06 591.69 1178.18 560 1120 560C1050 560 1050 560 980 560C910 560 910 560 840 560C770 560 770 560 700 560C630 560 630 560 560 560C490 560 490 560 420 560C350 560 350 560 280 560C210 560 210 560 140 560C92.28 560 89.86 568.69 44.55 560C19.86 555.26 7.02 555.2 0 533.15C-15.26 485.2 0 476.58 0 420C0 350 0 350 0 280C0 210 0 210 0 140C0 98.38 -15.72 91.34 0 56.76" stroke="rgba(51, 121, 194, 0.58)" stroke-width="2"></path><path d="M980 98.82C931.64 98.82 897.55 102.28 885.41 140C868.39 192.87 891.55 216.85 921.67 280C938.85 316.02 957.65 338.33 980 338.33C996.68 338.33 983.06 305.49 999.72 280C1047.88 206.32 1115.22 191.35 1109.63 140C1105.36 100.76 1043.75 98.82 980 98.82" stroke="rgba(51, 121, 194, 0.58)" stroke-width="2"></path><path d="M1400 118.87C1386.46 118.87 1369.73 130.18 1369.73 140C1369.73 149.23 1386.1 156.97 1400 156.97C1409.47 156.97 1416.47 148.93 1416.47 140C1416.47 129.88 1409.83 118.87 1400 118.87" stroke="rgba(51, 121, 194, 0.58)" stroke-width="2"></path><path d="M163.33 140C185.5 76.52 219.9 85.9 280 36.3C304.72 15.9 303.25 7.71 332.97 0C373.25 -10.44 376.49 0 420 0C490 0 490 0 560 0C594.11 0 596.78 -9.67 628.21 0C666.78 11.87 667.06 17.52 700 43.08C757.27 87.52 779.95 79.63 808.62 140C836.2 198.09 809.03 210.08 812.5 280C815.97 350.08 811.82 351.51 822.5 420C825.57 439.66 822.43 453.34 840 456.3C901.18 466.61 910.53 455.56 980 446.55C1050.53 437.41 1069.82 393.01 1120 420C1175.27 449.73 1190.91 511.79 1190.91 560C1190.91 581.79 1155.45 560 1120 560C1050 560 1050 560 980 560C910 560 910 560 840 560C770 560 770 560 700 560C663.48 560 658.72 572.94 626.96 560C588.72 544.42 599.92 513.15 560 502.96C496.44 486.73 485.45 490.38 420 507.17C374.28 518.9 381.7 543.38 337.65 560C311.7 569.79 308.83 560 280 560C210 560 210 560 140 560C132.05 560 124.09 565.34 124.09 560C124.09 545.9 132.56 540.75 140 521.11C159.08 470.75 165.26 472.19 177.14 420C192.71 351.63 198.32 349.41 194.9 280C191.42 209.41 142.95 198.37 163.33 140" stroke="rgba(51, 121, 194, 0.58)" stroke-width="2"></path><path d="M980 57.65C946 57.65 922.35 16.89 922.35 0C922.35 -11.94 951.17 0 980 0C1042.82 0 1105.64 -13.72 1105.64 0C1105.64 15.1 1037.65 57.65 980 57.65" stroke="rgba(51, 121, 194, 0.58)" stroke-width="2"></path><path d="M1239.26 140C1255.83 129.4 1250.74 105 1260 105C1268.68 105 1260.41 128.96 1275.14 140C1330.41 181.46 1344.34 167 1400 210C1434.94 237 1444.48 238.96 1456.34 280C1474.82 343.96 1478.14 357.78 1460.67 420C1449.97 458.11 1427.03 480.67 1400 480.67C1377.33 480.67 1386.86 444.47 1361.28 420C1316.86 377.52 1313.28 346.77 1260 346.77C1192.64 346.77 1172.92 436.75 1120 420C1067.42 403.36 1049.01 346.01 1049.01 280C1049.01 233.3 1076.38 226.68 1120 194.58C1171.51 156.68 1185.83 174.19 1239.26 140" stroke="rgba(51, 121, 194, 0.58)" stroke-width="2"></path><path d="M1400 52.83C1362.66 19.2 1312.5 14.23 1312.5 0C1312.5 -12.18 1356.25 0 1400 0C1463.64 0 1464.57 -3.39 1527.27 0C1534.57 0.39 1539.36 0.53 1540 7.57C1545.72 70.53 1540 73.78 1540 140C1540 169.17 1553.91 198.33 1540 198.33C1517.88 198.33 1499.87 173.19 1467.94 140C1429.87 100.44 1440.38 89.2 1400 52.83" stroke="rgba(51, 121, 194, 0.58)" stroke-width="2"></path><path d="M0 151.05C24.44 151.05 62.39 209.1 89.09 280C113.03 343.57 125.27 364.75 101.28 420C80.72 467.36 32.85 485.21 0 485.21C-17.79 485.21 0 452.61 0 420C0 350 0 350 0 280C0 215.52 -20.11 151.05 0 151.05" stroke="rgba(51, 121, 194, 0.58)" stroke-width="2"></path><path d="M560 173.79C535.93 173.79 510.32 230.38 510.32 280C510.32 312.01 535.7 337.04 560 337.04C583.53 337.04 605.97 311.64 605.97 280C605.97 230.02 583.76 173.79 560 173.79" stroke="rgba(51, 121, 194, 0.58)" stroke-width="2"></path><path d="M236.25 140C238.65 113.97 253.96 101.11 280 101.11C337.6 101.11 344.2 116.54 403.53 140C414.2 144.22 416.13 145.7 420 156.47C441.3 215.7 422.92 225.75 453.87 280C492.92 348.44 508.1 401.85 560 401.85C610.27 401.85 640.92 348.28 658.21 280C674.08 217.35 613.21 197.41 626.32 140C634.11 105.87 665.32 96.92 700 96.92C726.3 96.92 740.38 111.07 748.28 140C765.38 202.61 747.07 210.09 750 280C752.93 350.09 772.2 353.03 760 420C747.2 490.23 744.72 550.34 700 554.4C644.72 559.42 639.12 470.16 560 438.15C499.12 413.52 488 428.54 420 441.13C348 454.46 336.49 496.96 280 490C250.77 486.4 251.47 457.04 248.57 420C243.24 352.04 266.59 349.55 263.53 280C260.43 209.55 230.41 203.42 236.25 140" stroke="rgba(51, 121, 194, 0.58)" stroke-width="2"></path><path d="M980 16.47C970.29 16.47 963.53 4.82 963.53 0C963.53 -3.41 971.76 0 980 0C997.95 0 1015.9 -3.92 1015.9 0C1015.9 4.31 996.47 16.47 980 16.47" stroke="rgba(51, 121, 194, 0.58)" stroke-width="2"></path><path d="M1519.41 140C1519.41 123.12 1534.52 102.16 1540 102.16C1544.81 102.16 1540 121.08 1540 140C1540 148.33 1543.98 156.67 1540 156.67C1533.68 156.67 1519.41 150.38 1519.41 140" stroke="rgba(51, 121, 194, 0.58)" stroke-width="2"></path><path d="M0 243.16C6.98 243.16 22.2 258.57 25.45 280C35.61 346.99 37.17 355.96 26.81 420C24.45 434.59 8.7 437.26 0 437.26C-4.71 437.26 0 428.63 0 420C0 350 0 350 0 280C0 261.58 -5.74 243.16 0 243.16" stroke="rgba(51, 121, 194, 0.58)" stroke-width="2"></path><path d="M1098.31 280C1098.31 265.73 1104.23 256.93 1120 253.9C1185.08 241.38 1190.16 246.61 1260 248.89C1330.16 251.18 1333.47 249.56 1400 263.03C1410.3 265.12 1413.66 269.99 1413.66 280C1413.66 306.48 1421.7 334.18 1400 336C1344.87 340.64 1330.8 296.26 1260 292.92C1190.8 289.65 1180.56 327.62 1120 322.78C1099.71 321.16 1098.31 300.17 1098.31 280" stroke="rgba(51, 121, 194, 0.58)" stroke-width="2"></path><path d="M865.93 560C865.93 546.07 919.88 518.79 980 506.9C1046.91 493.66 1061.01 490.81 1120 509.74C1143.73 517.36 1145.45 542.69 1145.45 560C1145.45 567.82 1132.72 560 1120 560C1050 560 1050 560 980 560C922.96 560 865.93 572.62 865.93 560" stroke="rgba(51, 121, 194, 0.58)" stroke-width="2"></path></g><defs><mask id="SvgjsMask1585"><rect width="1440" height="560" fill="#ffffff"></rect></mask><linearGradient x1="84.72%" y1="-39.29%" x2="15.28%" y2="139.29%" gradientUnits="userSpaceOnUse" id="SvgjsLinearGradient1586"><stop stop-color="rgba(0, 28, 57, 1)" offset="0"></stop><stop stop-color="rgba(0, 0, 0, 1)" offset="1"></stop></linearGradient></defs></svg>